<svg width="23" height="23" viewBox="0 0 23 23" fill="none" xmlns="http://www.w3.org/2000/svg">
<path d="M10.9844 4.0625C12.3177 4.0625 13.4062 4.07812 14.25 4.10937C14.9688 4.14062 15.6094 4.26562 16.1719 4.48437C16.7135 4.69271 17.1823 4.99479 17.5781 5.39062C17.974 5.78646 18.276 6.25521 18.4844 6.79687C18.7031 7.35937 18.8281 8 18.8594 8.71875C18.8906 9.5625 18.9062 10.651 18.9062 11.9844C18.9062 13.3177 18.8906 14.4062 18.8594 15.25C18.8281 15.9687 18.7031 16.6094 18.4844 17.1719C18.276 17.7135 17.974 18.1823 17.5781 18.5781C17.1823 18.974 16.7135 19.276 16.1719 19.4844C15.6094 19.7031 14.9688 19.8281 14.25 19.8594C13.4062 19.8906 12.3177 19.9062 10.9844 19.9062C9.65104 19.9062 8.5625 19.8906 7.71875 19.8594C7 19.8281 6.35938 19.7031 5.79688 19.4844C5.25521 19.276 4.78646 18.974 4.39062 18.5781C3.99479 18.1823 3.69271 17.7135 3.48438 17.1719C3.26562 16.6094 3.14062 15.9687 3.10938 15.25C3.07812 14.4062 3.0625 13.3177 3.0625 11.9844C3.0625 10.651 3.07812 9.5625 3.10938 8.71875C3.14062 8 3.26562 7.35937 3.48438 6.79687C3.69271 6.25521 3.99479 5.78646 4.39062 5.39062C4.78646 4.99479 5.25521 4.69271 5.79688 4.48437C6.35938 4.26562 7 4.14062 7.71875 4.10937C8.5625 4.07812 9.65104 4.0625 10.9844 4.0625ZM10.9844 5.09375C9.59896 5.09375 8.46875 5.10937 7.59375 5.14062C7.03125 5.16146 6.51042 5.26042 6.03125 5.4375C5.28125 5.75 4.75 6.28125 4.4375 7.03125C4.26042 7.51042 4.16146 8.03125 4.14062 8.59375C4.10938 9.46875 4.09375 10.599 4.09375 11.9844C4.09375 13.3698 4.10938 14.5 4.14062 15.375C4.16146 15.9375 4.26042 16.4583 4.4375 16.9375C4.75 17.6875 5.28125 18.2187 6.03125 18.5312C6.51042 18.7083 7.03125 18.8073 7.59375 18.8281C8.46875 18.8594 9.59896 18.875 10.9844 18.875C12.3698 18.875 13.5 18.8594 14.375 18.8281C14.9375 18.8073 15.4583 18.7083 15.9375 18.5312C16.6875 18.2187 17.2188 17.6875 17.5312 16.9375C17.7083 16.4583 17.8073 15.9375 17.8281 15.375C17.8594 14.5 17.875 13.3698 17.875 11.9844C17.875 10.599 17.8594 9.46875 17.8281 8.59375C17.8073 8.03125 17.7083 7.51042 17.5312 7.03125C17.2188 6.28125 16.6875 5.75 15.9375 5.4375C15.4583 5.26042 14.9375 5.16146 14.375 5.14062C13.5 5.10937 12.3698 5.09375 10.9844 5.09375ZM10.9844 15.1562C11.8594 15.1562 12.6068 14.8464 13.2266 14.2266C13.8464 13.6068 14.1562 12.8594 14.1562 11.9844C14.1562 11.1094 13.8464 10.362 13.2266 9.74219C12.6068 9.1224 11.8594 8.8125 10.9844 8.8125C10.1094 8.8125 9.36198 9.1224 8.74219 9.74219C8.1224 10.362 7.8125 11.1094 7.8125 11.9844C7.8125 12.8594 8.1224 13.6068 8.74219 14.2266C9.36198 14.8464 10.1094 15.1562 10.9844 15.1562ZM10.9844 7.92187C12.1094 7.92187 13.0677 8.31771 13.8594 9.10937C14.651 9.90104 15.0469 10.8594 15.0469 11.9844C15.0469 13.1094 14.651 14.0677 13.8594 14.8594C13.0677 15.651 12.1094 16.0469 10.9844 16.0469C9.85938 16.0469 8.90104 15.651 8.10938 14.8594C7.31771 14.0677 6.92188 13.1094 6.92188 11.9844C6.92188 10.8594 7.31771 9.90104 8.10938 9.10937C8.90104 8.31771 9.85938 7.92187 10.9844 7.92187ZM16.1719 7.76562C16.1719 8.02604 16.0781 8.2474 15.8906 8.42969C15.7031 8.61198 15.474 8.70312 15.2031 8.70312C14.9427 8.70312 14.7214 8.61198 14.5391 8.42969C14.3568 8.2474 14.2656 8.02604 14.2656 7.76562C14.2656 7.49479 14.3568 7.26562 14.5391 7.07812C14.7214 6.89062 14.9427 6.79687 15.2031 6.79687C15.4635 6.79687 15.6901 6.89323 15.8828 7.08594C16.0755 7.27865 16.1719 7.50521 16.1719 7.76562Z" fill="#666666"/>
</svg>
