<svg width="23" height="23" viewBox="0 0 23 23" fill="none" xmlns="http://www.w3.org/2000/svg">
<path d="M0.0700912 6.99242C0.0700912 6.37058 0.493211 6.03527 1.33945 5.9865L4.60039 6.00479C4.81925 6.00479 4.96515 6.09624 5.03811 6.27913C5.37368 7.1936 5.74938 7.98309 6.16521 8.64761C6.58103 9.31212 7.12453 10.0772 7.79568 10.9429C7.85404 11.0527 7.94888 11.1075 8.08019 11.1075C8.18233 11.1075 8.26257 11.0649 8.32093 10.9795L8.38659 10.7783L8.40848 7.61426C8.40848 7.39479 8.34647 7.24847 8.22245 7.17531C8.09843 7.10215 7.86863 7.04729 7.53305 7.01071C7.27043 6.97413 7.13912 6.84001 7.13912 6.60834C7.13912 6.55957 7.14641 6.52299 7.161 6.4986C7.4674 5.70606 8.34282 5.30979 9.78726 5.30979L11.0129 5.2915C11.5673 5.2915 12.0269 5.40734 12.3916 5.639C12.7564 5.87067 12.9388 6.23646 12.9388 6.73637V10.8881C13.0409 10.949 13.1357 10.9795 13.2233 10.9795C13.4421 10.9795 13.6318 10.8698 13.7923 10.6503C15.3973 8.77259 16.2654 7.51671 16.3967 6.88268C16.3967 6.87049 16.4113 6.84001 16.4405 6.79123C16.5426 6.60834 16.7104 6.44983 16.9438 6.31571C17.1773 6.18159 17.3815 6.09014 17.5566 6.04137C17.615 6.01698 17.6806 6.00479 17.7536 6.00479H21.1459L21.3647 6.02308C21.6565 6.02308 21.8827 6.13891 22.0432 6.37058C22.1015 6.44374 22.1416 6.52299 22.1635 6.60834C22.1854 6.69369 22.2 6.77904 22.2073 6.86439C22.2146 6.94974 22.2182 6.99851 22.2182 7.01071V7.13873C22.1161 7.63864 21.8571 8.17208 21.4413 8.73906C21.0255 9.30603 20.4966 9.91872 19.8546 10.5771C19.2126 11.2356 18.8114 11.6684 18.6509 11.8757C18.5196 12.022 18.4539 12.1561 18.4539 12.2781C18.4539 12.3756 18.5123 12.4853 18.629 12.6073L21.8243 15.9725C21.9994 16.1676 22.0869 16.381 22.0869 16.6126C22.0869 16.8931 21.9556 17.1247 21.693 17.3076C21.4304 17.4905 21.1167 17.5942 20.7519 17.6186L20.3799 17.6369H17.0533C17.0387 17.6369 17.0095 17.6399 16.9657 17.646C16.9219 17.6521 16.8928 17.6551 16.8782 17.6551C16.5572 17.6551 16.2581 17.5393 15.9809 17.3076C15.8787 17.2101 15.193 16.4907 13.9236 15.1495C13.8507 15.0641 13.7485 14.9849 13.6172 14.9117C13.5589 15.1068 13.4823 15.3873 13.3874 15.753C13.2926 16.1188 13.2233 16.381 13.1795 16.5395L13.1139 16.8504C12.968 17.2772 12.6616 17.5332 12.1947 17.6186L11.8883 17.6369H9.74349C8.53249 17.6369 7.32514 17.1735 6.12144 16.2469C4.91773 15.3202 3.8344 14.1222 2.87144 12.653C1.90848 11.1837 1.01117 9.47368 0.179519 7.52281C0.106567 7.3643 0.0700912 7.18751 0.0700912 6.99242ZM13.2233 11.7294C12.9169 11.7294 12.6397 11.6593 12.3916 11.519C12.1436 11.3788 12.0196 11.1868 12.0196 10.9429V6.73637C12.0196 6.49251 11.9466 6.31876 11.8007 6.21512C11.6548 6.11148 11.3995 6.05966 11.0347 6.05966L9.78726 6.09624C9.15988 6.09624 8.68569 6.18768 8.3647 6.37058C9.00668 6.62663 9.32767 7.04119 9.32767 7.61426V10.8332C9.29849 11.138 9.15258 11.391 8.88996 11.5922C8.62733 11.7934 8.33552 11.894 8.01454 11.894C7.57683 11.894 7.24125 11.7172 7.0078 11.3636C5.86975 9.92482 5.02351 8.55921 4.46908 7.26676L4.27211 6.79123L1.36134 6.77295C1.17166 6.77295 1.06588 6.78209 1.044 6.80038C1.02211 6.81867 1.01117 6.87049 1.01117 6.95584C1.01117 7.06558 1.02576 7.18141 1.05494 7.30334L1.51454 8.32754C2.74013 10.9734 4.07149 13.0584 5.50864 14.5825C6.94579 16.1066 8.35741 16.8687 9.74349 16.8687H11.932C12.0196 16.8687 12.0852 16.8474 12.129 16.8047C12.1728 16.762 12.2093 16.6797 12.2384 16.5578L12.2822 16.3749L12.698 14.7654C12.8148 14.5459 12.9169 14.3996 13.0044 14.3265C13.1649 14.1923 13.3546 14.1253 13.5735 14.1253C13.9236 14.1253 14.2811 14.3021 14.6458 14.6557L16.5061 16.6309C16.6228 16.7894 16.7469 16.8687 16.8782 16.8687H20.4893C20.927 16.8687 21.1459 16.7772 21.1459 16.5944C21.1459 16.5334 21.124 16.4724 21.0802 16.4115L17.9068 13.1011C17.6588 12.845 17.5347 12.5707 17.5347 12.2781C17.5347 11.9854 17.6515 11.705 17.8849 11.4367C18.0746 11.1929 18.443 10.7875 18.9901 10.2205C19.5373 9.65353 20.0151 9.12313 20.4236 8.62932C20.8322 8.13551 21.1021 7.68742 21.2334 7.28505L21.299 7.04729C21.2845 7.0229 21.2772 6.98327 21.2772 6.92841C21.2772 6.87354 21.2699 6.82781 21.2553 6.79123H17.8193C17.6004 6.86439 17.4253 6.97413 17.294 7.12044L17.1627 7.46794C16.7979 8.30926 15.8423 9.6078 14.2957 11.3636C13.9893 11.6074 13.6318 11.7294 13.2233 11.7294Z" fill="#666666"/>
</svg>
