<svg width="23" height="23" viewBox="0 0 23 23" fill="none" xmlns="http://www.w3.org/2000/svg">
<path fill-rule="evenodd" clip-rule="evenodd" d="M6.12403 2.75681C7.08751 1.81207 8.39201 1.2832 9.75 1.2832H12.5C12.8038 1.2832 13.05 1.52945 13.05 1.8332V5.42855C13.05 5.7323 12.8038 5.97855 12.5 5.97855H9.75C9.64931 5.97855 9.55486 6.01787 9.48689 6.08452C9.41929 6.15081 9.38334 6.23839 9.38334 6.32738V8.47389H12.5C12.6698 8.47389 12.8301 8.55233 12.9343 8.68643C13.0385 8.82052 13.0749 8.99522 13.033 9.15977L12.1163 12.7551C12.0542 12.9987 11.8348 13.1692 11.5833 13.1692H9.38334V19.8099C9.38334 20.1137 9.13709 20.3599 8.83334 20.3599H5.16667C4.86291 20.3599 4.61667 20.1137 4.61667 19.8099V13.1692H2.41667C2.11291 13.1692 1.86667 12.923 1.86667 12.6192V9.02389C1.86667 8.72013 2.11291 8.47389 2.41667 8.47389H4.61667V6.32738C4.61667 4.98606 5.16018 3.70191 6.12403 2.75681ZM9.75 2.3832C8.67685 2.3832 7.64977 2.80132 6.89417 3.54223C6.13893 4.28277 5.71667 5.28485 5.71667 6.32738V9.02389C5.71667 9.32765 5.47043 9.57389 5.16667 9.57389H2.96667V12.0692H5.16667C5.47043 12.0692 5.71667 12.3155 5.71667 12.6192V19.2599H8.28334V12.6192C8.28334 12.3155 8.52958 12.0692 8.83334 12.0692H11.156L11.7922 9.57389H8.83334C8.52958 9.57389 8.28334 9.32765 8.28334 9.02389V6.32738C8.28334 5.9396 8.44054 5.56994 8.71675 5.2991C8.9926 5.02862 9.36447 4.87855 9.75 4.87855H11.95V2.3832H9.75Z" fill="#666666"/>
</svg>
